<?xml version="1.0" encoding="UTF-8" standalone="no"?>
<svg
   width="144px"
   height="144px"
   style="enable-background:new 0 0 144 144"
   version="1.1"
   viewBox="19 19 106 106"
   xml:space="preserve"
   id="svg8"
   sodipodi:docname="yams.svg"
   inkscape:version="1.1.1 (3bf5ae0d25, 2021-09-20)"
   inkscape:export-filename="C:\Users\frank\Downloads\yams.png"
   inkscape:export-xdpi="682.66669"
   inkscape:export-ydpi="682.66669"
   xmlns:inkscape="http://www.inkscape.org/namespaces/inkscape"
   xmlns:sodipodi="http://sodipodi.sourceforge.net/DTD/sodipodi-0.dtd"
   xmlns:xlink="http://www.w3.org/1999/xlink"
   xmlns="http://www.w3.org/2000/svg"
   xmlns:svg="http://www.w3.org/2000/svg"
   xmlns:rdf="http://www.w3.org/1999/02/22-rdf-syntax-ns#"
   xmlns:cc="http://creativecommons.org/ns#"
   xmlns:dc="http://purl.org/dc/elements/1.1/"><defs
     id="defs12"><linearGradient
       id="linearGradient8269"
       inkscape:swatch="solid"><stop
         style="stop-color:#000000;stop-opacity:1;"
         offset="0"
         id="stop8267" /></linearGradient><linearGradient
       inkscape:collect="always"
       id="linearGradient7435"><stop
         style="stop-color:#95541a;stop-opacity:1"
         offset="0"
         id="stop7431" /><stop
         style="stop-color:#897670;stop-opacity:0"
         offset="1"
         id="stop7433" /></linearGradient><linearGradient
       inkscape:collect="always"
       xlink:href="#linearGradient7435"
       id="linearGradient7437"
       x1="10.826143"
       y1="104.97694"
       x2="129.84566"
       y2="33.854"
       gradientUnits="userSpaceOnUse"
       gradientTransform="rotate(-7.8227092,72.4255,71.98)" /></defs><sodipodi:namedview
     id="namedview10"
     pagecolor="#505050"
     bordercolor="#eeeeee"
     borderopacity="1"
     inkscape:pageshadow="0"
     inkscape:pageopacity="0"
     inkscape:pagecheckerboard="0"
     showgrid="false"
     inkscape:zoom="6.0625"
     inkscape:cx="69.278351"
     inkscape:cy="81.731959"
     inkscape:window-width="2560"
     inkscape:window-height="1351"
     inkscape:window-x="-9"
     inkscape:window-y="-9"
     inkscape:window-maximized="1"
     inkscape:current-layer="svg8" /><title
     id="title2">Rust programming language logo</title><metadata
     id="metadata4"><rdf:RDF><cc:Work
         rdf:about=""><dc:format>image/svg+xml</dc:format><dc:type
           rdf:resource="http://purl.org/dc/dcmitype/StillImage" /><dc:title>Rust programming language logo</dc:title></cc:Work></rdf:RDF></metadata><path
     d="m 123.34583,63.692197 -4.71936,-2.097172 c -0.0949,-0.418981 -0.19464,-0.836291 -0.29806,-1.251075 l 3.26572,-4.001732 c 0.3317,-0.406934 0.42997,-0.955413 0.25725,-1.448493 -0.17016,-0.49646 -0.58551,-0.867379 -1.09658,-0.979866 l -5.03004,-1.125846 c -0.17677,-0.397641 -0.35907,-0.791493 -0.54462,-1.186919 l 2.41306,-4.550786 c 0.24629,-0.46283 0.23344,-1.019259 -0.0303,-1.469552 -0.26388,-0.451283 -0.74391,-0.734584 -1.26371,-0.74897 l -5.15533,-0.127503 c -0.24869,-0.355459 -0.5045,-0.703884 -0.76146,-1.046093 l 1.48037,-4.947533 c 0.1519,-0.50336 0.0322,-1.044098 -0.31698,-1.44026 -0.34763,-0.392335 -0.87075,-0.57786 -1.38914,-0.486454 l -5.09738,0.882005 c -0.30998,-0.294551 -0.6245,-0.585449 -0.94316,-0.869723 l 0.4943,-5.145159 c 0.0493,-0.522578 -0.17362,-1.03601 -0.59252,-1.351934 -0.41593,-0.316333 -0.96776,-0.394955 -1.46164,-0.205976 l -4.821219,1.86355 c -0.360532,-0.22906 -0.725609,-0.454468 -1.093833,-0.673387 l -0.524364,-5.146523 c -0.05137,-0.520855 -0.371643,-0.978523 -0.843057,-1.206481 -0.472677,-0.229803 -1.02652,-0.198126 -1.472517,0.08219 l -4.355083,2.758433 c -0.403784,-0.15448 -0.808286,-0.306841 -1.212826,-0.452132 L 86.718284,22.38914 c -0.15345,-0.499765 -0.555846,-0.886595 -1.062019,-1.014895 -0.505863,-0.133389 -1.048832,0.0068 -1.423274,0.367136 l -3.731415,3.550921 c -0.425997,-0.0737 -0.853293,-0.142182 -1.279774,-0.204717 L 76.78115,20.547528 c -0.248262,-0.462514 -0.717451,-0.762444 -1.23956,-0.793671 -0.522964,-0.0301 -1.020795,0.210901 -1.325451,0.638345 l -2.972754,4.223924 c -0.427442,0.01128 -0.857311,0.02694 -1.285101,0.05038 L 66.66472,20.677669 c -0.333009,-0.403429 -0.852363,-0.605623 -1.375449,-0.533757 -0.523086,0.07186 -0.963716,0.405947 -1.170635,0.883555 l -2.095811,4.729268 c -0.419253,0.09293 -0.837418,0.193783 -1.251075,0.298055 l -4.001732,-3.265722 c -0.405671,-0.329854 -0.954013,-0.427126 -1.448492,-0.257242 -0.496189,0.172137 -0.867244,0.586497 -0.979594,1.098554 l -1.125847,5.030047 c -0.397777,0.175776 -0.790638,0.357943 -1.177147,0.542265 l -4.550787,-2.413056 c -0.46283,-0.246297 -1.020522,-0.235288 -1.469551,0.0303 -0.451284,0.263879 -0.735439,0.745033 -0.74897,1.263701 l -0.129485,5.155602 c -0.353341,0.249414 -0.701903,0.504227 -1.045957,0.762459 l -4.937626,-1.481737 c -0.502233,-0.151048 -1.043962,-0.0312 -1.440124,0.317971 -0.392471,0.346645 -0.577452,0.873727 -0.486454,1.389138 l 0.882005,5.097388 c -0.294551,0.309976 -0.585313,0.625487 -0.871704,0.943426 l -5.14516,-0.494301 c -0.522441,-0.04834 -1.035737,0.175606 -1.351933,0.592523 -0.318042,0.41818 -0.394819,0.968753 -0.205976,1.461637 l 1.853643,4.822583 c -0.22807,0.360396 -0.452623,0.724347 -0.671678,1.091579 l -5.146387,0.525355 c -0.518193,0.05605 -0.978522,0.371643 -1.206481,0.843057 -0.230211,0.469705 -0.198126,1.02652 0.08219,1.472517 l 2.759794,4.36499 c -0.154752,0.401803 -0.307113,0.806305 -0.452132,1.212826 l -4.929935,1.513086 c -0.500755,0.153586 -0.885605,0.555709 -1.014895,1.062018 -0.132126,0.507709 0.0078,1.048697 0.367136,1.423275 l 3.550921,3.731415 c -0.07357,0.426987 -0.142901,0.855411 -0.204347,1.289816 l -4.540057,2.440652 c -0.460532,0.24799 -0.760463,0.71718 -0.79169,1.239289 -0.03109,0.5231 0.209911,1.02093 0.638345,1.32545 l 4.223925,2.972754 c 0.01128,0.427442 0.02793,0.857176 0.05038,1.285102 l -3.978932,3.292203 c -0.403429,0.333009 -0.605758,0.851371 -0.533757,1.375448 0.072,0.524078 0.405948,0.963716 0.883556,1.170635 l 4.719361,2.097173 c 0.09392,0.419117 0.193646,0.836427 0.298055,1.251074 l -3.265722,4.001732 c -0.330845,0.405808 -0.428117,0.95415 -0.257242,1.448493 0.171146,0.496324 0.58636,0.866253 1.096572,0.979866 l 5.030047,1.125846 c 0.175776,0.397777 0.358079,0.79163 0.544617,1.186919 l -2.413056,4.550786 c -0.24517,0.463685 -0.234297,1.020386 0.0303,1.469552 0.265142,0.453129 0.745169,0.73643 1.273608,0.747609 l 5.15533,0.127503 c 0.249686,0.355323 0.503509,0.70402 0.762459,1.045954 l -1.481738,4.93763 c -0.151047,0.50223 -0.0312,1.04396 0.317972,1.44012 0.348762,0.39319 0.875845,0.57817 1.389138,0.48646 l 5.087345,-0.88164 c 0.312229,0.29626 0.625487,0.58532 0.943426,0.87171 l -0.484395,5.14379 c -0.04947,0.52159 0.172264,1.02611 0.591163,1.34203 0.416334,0.31931 0.968617,0.39383 1.461501,0.20499 l 4.822583,-1.85365 c 0.361795,0.23091 0.726464,0.45334 1.09356,0.67141 l 0.525355,5.14639 c 0.05137,0.52085 0.371643,0.97852 0.843057,1.20648 0.469569,0.22922 1.026384,0.19713 1.472245,-0.0842 l 4.355083,-2.75843 c 0.403065,0.15659 0.807295,0.30697 1.212826,0.45213 l 1.515067,4.92966 c 0.153722,0.50175 0.556118,0.88858 1.063379,1.0248 0.505863,0.13339 1.048833,-0.007 1.423411,-0.36614 l 3.731415,-3.55092 c 0.426987,0.0736 0.855547,0.14389 1.289953,0.20533 l 2.440652,4.54006 c 0.24799,0.46053 0.717451,0.76245 1.239288,0.79169 0.523372,0.0331 1.021067,-0.20892 1.325451,-0.63834 l 2.972753,-4.22393 c 0.427715,-0.009 0.857312,-0.0269 1.285511,-0.0474 l 3.292202,3.97893 c 0.331747,0.40159 0.851372,0.60576 1.365542,0.53512 0.51417,-0.0706 0.96358,-0.40694 1.180542,-0.88491 l 2.097172,-4.71937 c 0.418845,-0.0959 0.836291,-0.19463 1.250667,-0.30102 l 4.001732,3.26572 c 0.405943,0.33184 0.954421,0.4301 1.448492,0.25724 0.496461,-0.17015 0.867244,-0.5865 0.979866,-1.09657 l 1.125847,-5.03005 c 0.397777,-0.17577 0.791493,-0.35907 1.186782,-0.54561 l 4.550787,2.41306 c 0.462558,0.24432 1.020249,0.23331 1.469415,-0.0313 0.452411,-0.26302 0.735439,-0.74503 0.747609,-1.27361 l 0.129485,-5.1556 c 0.353335,-0.24941 0.701625,-0.50621 1.045955,-0.76246 l 4.93763,1.48174 c 0.50223,0.15105 1.04409,0.0322 1.44039,-0.31599 0.3922,-0.34863 0.57646,-0.87359 0.48646,-1.38914 l -0.88201,-5.09739 c 0.29455,-0.30997 0.58586,-0.62152 0.87099,-0.94131 l 5.14379,0.4844 c 0.52258,0.0493 1.03629,-0.17165 1.35207,-0.59153 0.31805,-0.41818 0.3951,-0.96678 0.20734,-1.45173 l -1.85364,-4.822588 c 0.22892,-0.361522 0.45361,-0.724482 0.6714,-1.09356 l 5.14653,-0.524364 c 0.51901,-0.05011 0.97866,-0.370653 1.20648,-0.843058 0.22994,-0.471686 0.19898,-1.027646 -0.0832,-1.472381 l -2.75843,-4.355083 c 0.15547,-0.403919 0.30684,-0.808285 0.45114,-1.212689 l 4.92993,-1.513086 c 0.50189,-0.152731 0.88674,-0.554855 1.0149,-1.062018 0.1324,-0.505727 -0.006,-1.048969 -0.36714,-1.423275 l -3.55092,-3.731415 c 0.0726,-0.426851 0.14191,-0.855275 0.20435,-1.289817 l 4.54006,-2.440651 c 0.46138,-0.249117 0.76244,-0.717452 0.79169,-1.239289 0.0331,-0.523372 -0.20892,-1.021066 -0.63835,-1.325451 l -4.22392,-2.972753 c -0.0123,-0.427306 -0.0289,-0.85704 -0.0504,-1.285102 l 3.97894,-3.292203 c 0.40356,-0.332018 0.60576,-0.851371 0.53512,-1.365542 -0.0707,-0.51417 -0.40496,-0.963851 -0.88393,-1.180677 z M 99.187376,103.85411 c -1.713637,-0.12997 -2.98944,-1.62827 -2.861452,-3.34163 0.126997,-1.713229 1.616997,-2.997987 3.330362,-2.869999 1.713224,0.126998 2.999344,1.626904 2.871354,3.340269 -0.12798,1.71337 -1.61699,2.99799 -3.330357,2.87 z m -2.850827,-9.803208 c -1.560406,-0.116702 -2.923784,1.053757 -3.032016,2.617036 l -0.554615,7.424582 c -4.468522,2.81439 -9.64231,4.75666 -15.190196,5.51887 -5.706398,0.78398 -11.26863,0.26623 -16.433358,-1.32562 l -2.53635,-6.99993 C 58.05682,99.814727 56.435412,99.048281 54.964566,99.583456 l -6.182333,2.242334 c -1.346339,-1.05659 -2.043991,-1.54768 -3.242328,-2.776005 l 36.24327,-35.742143 c 0,0 6.430045,3.94208 11.327888,11.111788 4.897844,7.169709 5.858544,19.733271 5.858544,19.733271 L 96.387226,94.015676 Z M 54.793777,109.80179 c -1.615095,0.5873 -3.395376,-0.24817 -3.98096,-1.86552 -0.584321,-1.6155 0.24681,-3.40528 1.864158,-3.99086 1.615503,-0.58432 3.395784,0.25114 3.98096,1.86552 0.584321,1.6155 -0.247801,3.40542 -1.864158,3.99086 z M 36.457712,63.769102 c 0.903213,1.460658 0.452241,3.379899 -1.005892,4.286803 -1.460522,0.904204 -3.369993,0.45088 -4.276896,-1.007253 -0.906904,-1.458132 -0.452241,-3.379899 1.005891,-4.286803 1.460659,-0.903213 3.369993,-0.45088 4.276897,1.007253 z m -2.440058,9.056391 6.232047,-3.864194 c 1.330264,-0.823725 1.746233,-2.571608 0.917555,-3.901191 L 39.37544,62.156972 34.859557,58.918434 c 0.714791,-4.298563 5.315402,-10.891219 7.394601,-12.573517 4.836457,-1.373797 12.845647,-1.000501 21.016662,2.724269 8.171015,3.72477 12.022601,9.005506 12.022601,9.005506 L 39.881625,92.722115 C 37.288556,88.849068 34.887363,80.478336 34.391929,76.87221 34.202738,75.495145 34.090572,74.127686 34.049486,72.77065 Z m 68.405406,21.38893 C 103.16107,87.165243 102.26195,72.404112 83.314535,55.517212 64.367117,38.630311 51.133105,41.947819 46.761543,42.00318 c 3.820929,-3.188282 7.657845,-5.49273 13.333493,-6.642684 l 5.428687,4.321325 c 1.223752,0.972487 3.0039,0.778388 3.985205,-0.45465 l 4.613246,-5.801894 c 11.380238,0.546138 21.741867,6.168154 28.501406,14.959942 l -2.50887,8.702463 c -0.432475,1.502849 0.43617,3.079289 1.93564,3.5092 l 7.42168,2.149854 c 2.67354,6.319843 -2.50744,21.458243 -7.04897,31.467687 z M 64.241898,30.528103 c 1.066492,-1.3477 3.024964,-1.566298 4.362894,-0.497455 1.337793,1.067853 1.566298,3.024964 0.496834,4.373073 -1.066491,1.3477 -3.024964,1.566298 -4.363029,0.496464 -1.337793,-1.067853 -1.566299,-3.024964 -0.496835,-4.373073 z m 40.049232,24.072993 c 0.47484,-1.649984 2.19613,-2.603136 3.84679,-2.12334 1.65013,0.475833 2.6045,2.206036 2.12471,3.856701 -0.47485,1.649985 -2.19613,2.603136 -3.8468,2.123341 -1.65012,-0.475833 -2.6045,-2.206036 -2.1247,-3.856702 z"
     id="path6"
     sodipodi:nodetypes="cccccccccccccccccccccccccccccccccccccccscccccccccccccccccccccccccccccccccccccccscccccccccccccccccccccccccccccccccccccccscccccccccccccccccccccccccccccccccccccccscccccscccccscccccczccccccccccscccccccczccsccczccccccccccccccccccccc"
     style="fill:url(#linearGradient7437);fill-opacity:1;stroke:#000000;stroke-opacity:1" /></svg>
