<?xml version="1.0" encoding="UTF-8" standalone="no"?>
<svg xmlns="http://www.w3.org/2000/svg" version="1.1" xmlns:xlink="http://www.w3.org/1999/xlink" xmlns:svgjs="http://svgjs.com/svgjs" width="512" height="512" x="0" y="0" viewBox="0 0 64 64" style="enable-background:new 0 0 512 512" xml:space="preserve" class="">
   <g>
      <linearGradient id="a" x1="3.4" x2="60.6" y1="31.97" y2="31.97" gradientUnits="userSpaceOnUse">
         <stop stop-opacity="1" stop-color="#7f4d2f" offset="0"></stop>
         <stop stop-opacity="1" stop-color="#4c4a46" offset="0.59"></stop>
         <stop stop-opacity="1" stop-color="#624a3a" offset="1"></stop>
      </linearGradient>
      <path fill="url(#a)" d="m49.92 15.29-1.12-1.12a2.25 2.25 0 0 0-1.63-.67 2.31 2.31 0 0 0-1.63.67L21.32 38.38a29.61 29.61 0 0 1-6.65-18.74.61.61 0 0 0-.48-.59.6.6 0 0 0-.67.34 22.64 22.64 0 0 0 3 23.83l-2.24 2.24a.6.6 0 0 0 0 .84l3.55 3.55a.59.59 0 0 0 .85 0l2.26-2.26a23.49 23.49 0 0 0 14.31 4.91 24.5 24.5 0 0 0 9.43-1.92.6.6 0 0 0-.23-1.15 29.66 29.66 0 0 1-18.74-6.66l24.22-24.21a2.32 2.32 0 0 0-.01-3.27zM18.21 48.58l-2.69-2.7 1.73-1.73c.27.31.55.63.84.93A25.51 25.51 0 0 0 20 46.83zm.79-4.33a21.58 21.58 0 0 1-5.4-21.71 31 31 0 0 0 27.73 27.93A22.45 22.45 0 0 1 19 44.25zm30.08-26.54L24.8 42a29.81 29.81 0 0 1-2.7-2.69L46.39 15a1.1 1.1 0 0 1 .78-.32A1.06 1.06 0 0 1 48 15l1.12 1.12a1.11 1.11 0 0 1-.04 1.59zM32 60.54a28.6 28.6 0 1 1 .06 0zM32 4.6a27.37 27.37 0 1 0 0 54.74A27.37 27.37 0 0 0 32 4.6z" data-name="Layer 57" data-original="url(#a)" class=""></path>
   </g>
</svg>
